<svg width="141" height="26" viewBox="0 0 141 26" fill="none" xmlns="http://www.w3.org/2000/svg">
<rect width="141" height="26" rx="8" fill="#F3F4F7"/>
<path d="M10.25 7.471L17.0034 5.5L23.75 7.471V11.5128C23.7497 13.5841 23.0978 15.6028 21.8866 17.2831C20.6753 18.9634 18.9662 20.22 17.0011 20.875C15.0354 20.2203 13.3255 18.9635 12.1138 17.2829C10.9021 15.6022 10.25 13.5828 10.25 11.5109V7.471Z" stroke="#08878F" stroke-opacity="0.7" stroke-width="1.5" stroke-linejoin="round"/>
<path d="M13.625 12.625L16.25 15.25L20.75 10.75" stroke="#08878F" stroke-opacity="0.7" stroke-width="1.5" stroke-linecap="round" stroke-linejoin="round"/>
<path d="M30.876 17V8.6H33.744C34.416 8.6 34.968 8.712 35.4 8.936C35.832 9.16 36.152 9.46 36.36 9.836C36.568 10.212 36.672 10.64 36.672 11.12C36.672 11.576 36.568 11.996 36.36 12.38C36.16 12.756 35.844 13.06 35.412 13.292C34.98 13.516 34.424 13.628 33.744 13.628H32.076V17H30.876ZM32.076 12.632H33.696C34.328 12.632 34.776 12.496 35.04 12.224C35.312 11.944 35.448 11.576 35.448 11.12C35.448 10.632 35.312 10.256 35.04 9.992C34.776 9.728 34.328 9.596 33.696 9.596H32.076V12.632ZM39.5934 17.144C39.0974 17.144 38.6854 17.06 38.3574 16.892C38.0294 16.724 37.7854 16.5 37.6254 16.22C37.4654 15.932 37.3854 15.624 37.3854 15.296C37.3854 14.896 37.4894 14.556 37.6974 14.276C37.9054 13.988 38.2014 13.768 38.5854 13.616C38.9694 13.464 39.4294 13.388 39.9654 13.388H41.5374C41.5374 13.036 41.4854 12.744 41.3814 12.512C41.2774 12.28 41.1214 12.108 40.9134 11.996C40.7134 11.876 40.4574 11.816 40.1454 11.816C39.7854 11.816 39.4774 11.904 39.2214 12.08C38.9654 12.248 38.8054 12.5 38.7414 12.836H37.5414C37.5894 12.412 37.7334 12.052 37.9734 11.756C38.2214 11.452 38.5374 11.22 38.9214 11.06C39.3054 10.892 39.7134 10.808 40.1454 10.808C40.7134 10.808 41.1894 10.908 41.5734 11.108C41.9574 11.308 42.2454 11.592 42.4374 11.96C42.6374 12.32 42.7374 12.752 42.7374 13.256V17H41.6934L41.5974 15.98C41.5094 16.14 41.4054 16.292 41.2854 16.436C41.1654 16.58 41.0214 16.704 40.8534 16.808C40.6934 16.912 40.5054 16.992 40.2894 17.048C40.0814 17.112 39.8494 17.144 39.5934 17.144ZM39.8214 16.172C40.0774 16.172 40.3094 16.12 40.5174 16.016C40.7254 15.912 40.9014 15.772 41.0454 15.596C41.1974 15.412 41.3094 15.208 41.3814 14.984C41.4614 14.752 41.5054 14.516 41.5134 14.276V14.24H40.0854C39.7414 14.24 39.4614 14.284 39.2454 14.372C39.0374 14.452 38.8854 14.564 38.7894 14.708C38.6934 14.852 38.6454 15.02 38.6454 15.212C38.6454 15.412 38.6894 15.584 38.7774 15.728C38.8734 15.864 39.0094 15.972 39.1854 16.052C39.3614 16.132 39.5734 16.172 39.8214 16.172ZM44.7776 19.64L46.2536 16.328H45.9056L43.5176 10.952H44.8136L46.7096 15.344L48.6176 10.952H49.8776L46.0376 19.64H44.7776ZM56.8154 17.144C56.1994 17.144 55.6594 17.036 55.1954 16.82C54.7314 16.596 54.3714 16.284 54.1154 15.884C53.8594 15.484 53.7314 15.016 53.7314 14.48H54.9914C54.9994 14.784 55.0714 15.064 55.2074 15.32C55.3514 15.568 55.5554 15.768 55.8194 15.92C56.0914 16.064 56.4234 16.136 56.8154 16.136C57.1514 16.136 57.4394 16.08 57.6794 15.968C57.9274 15.856 58.1154 15.704 58.2434 15.512C58.3714 15.312 58.4354 15.084 58.4354 14.828C58.4354 14.532 58.3674 14.288 58.2314 14.096C58.0954 13.904 57.9114 13.748 57.6794 13.628C57.4554 13.5 57.1914 13.388 56.8874 13.292C56.5914 13.196 56.2794 13.092 55.9514 12.98C55.2874 12.764 54.7914 12.484 54.4634 12.14C54.1434 11.796 53.9834 11.348 53.9834 10.796C53.9834 10.324 54.0954 9.916 54.3194 9.572C54.5434 9.22 54.8554 8.948 55.2554 8.756C55.6634 8.556 56.1434 8.456 56.6954 8.456C57.2394 8.456 57.7154 8.556 58.1234 8.756C58.5314 8.956 58.8514 9.232 59.0834 9.584C59.3154 9.936 59.4314 10.348 59.4314 10.82H58.1594C58.1594 10.604 58.1034 10.392 57.9914 10.184C57.8794 9.976 57.7114 9.808 57.4874 9.68C57.2634 9.544 56.9874 9.476 56.6594 9.476C56.3874 9.468 56.1434 9.512 55.9274 9.608C55.7114 9.704 55.5434 9.844 55.4234 10.028C55.3034 10.212 55.2434 10.432 55.2434 10.688C55.2434 10.944 55.2954 11.152 55.3994 11.312C55.5114 11.464 55.6714 11.596 55.8794 11.708C56.0874 11.82 56.3274 11.924 56.5994 12.02C56.8794 12.108 57.1874 12.208 57.5234 12.32C57.9394 12.456 58.3074 12.624 58.6274 12.824C58.9554 13.016 59.2114 13.268 59.3954 13.58C59.5874 13.884 59.6834 14.276 59.6834 14.756C59.6834 15.172 59.5754 15.56 59.3594 15.92C59.1434 16.28 58.8234 16.576 58.3994 16.808C57.9754 17.032 57.4474 17.144 56.8154 17.144ZM63.0544 17.144C62.5584 17.144 62.1464 17.06 61.8184 16.892C61.4904 16.724 61.2464 16.5 61.0864 16.22C60.9264 15.932 60.8464 15.624 60.8464 15.296C60.8464 14.896 60.9504 14.556 61.1584 14.276C61.3664 13.988 61.6624 13.768 62.0464 13.616C62.4304 13.464 62.8904 13.388 63.4264 13.388H64.9984C64.9984 13.036 64.9464 12.744 64.8424 12.512C64.7384 12.28 64.5824 12.108 64.3744 11.996C64.1744 11.876 63.9184 11.816 63.6064 11.816C63.2464 11.816 62.9384 11.904 62.6824 12.08C62.4264 12.248 62.2664 12.5 62.2024 12.836H61.0024C61.0504 12.412 61.1944 12.052 61.4344 11.756C61.6824 11.452 61.9984 11.22 62.3824 11.06C62.7664 10.892 63.1744 10.808 63.6064 10.808C64.1744 10.808 64.6504 10.908 65.0344 11.108C65.4184 11.308 65.7064 11.592 65.8984 11.96C66.0984 12.32 66.1984 12.752 66.1984 13.256V17H65.1544L65.0584 15.98C64.9704 16.14 64.8664 16.292 64.7464 16.436C64.6264 16.58 64.4824 16.704 64.3144 16.808C64.1544 16.912 63.9664 16.992 63.7504 17.048C63.5424 17.112 63.3104 17.144 63.0544 17.144ZM63.2824 16.172C63.5384 16.172 63.7704 16.12 63.9784 16.016C64.1864 15.912 64.3624 15.772 64.5064 15.596C64.6584 15.412 64.7704 15.208 64.8424 14.984C64.9224 14.752 64.9664 14.516 64.9744 14.276V14.24H63.5464C63.2024 14.24 62.9224 14.284 62.7064 14.372C62.4984 14.452 62.3464 14.564 62.2504 14.708C62.1544 14.852 62.1064 15.02 62.1064 15.212C62.1064 15.412 62.1504 15.584 62.2384 15.728C62.3344 15.864 62.4704 15.972 62.6464 16.052C62.8224 16.132 63.0344 16.172 63.2824 16.172ZM68.0541 17V10.136C68.0541 9.72 68.1221 9.38 68.2581 9.116C68.4021 8.852 68.6101 8.66 68.8821 8.54C69.1541 8.42 69.4821 8.36 69.8661 8.36H70.5741V9.38H70.0581C69.7701 9.38 69.5621 9.44 69.4341 9.56C69.3141 9.672 69.2541 9.872 69.2541 10.16V17H68.0541ZM67.1661 11.972V10.952H70.7061V11.972H67.1661ZM74.427 17.144C73.851 17.144 73.339 17.012 72.891 16.748C72.443 16.484 72.091 16.116 71.835 15.644C71.587 15.172 71.463 14.624 71.463 14C71.463 13.36 71.587 12.804 71.835 12.332C72.091 11.852 72.443 11.48 72.891 11.216C73.339 10.944 73.859 10.808 74.451 10.808C75.043 10.808 75.551 10.94 75.975 11.204C76.399 11.468 76.727 11.82 76.959 12.26C77.191 12.692 77.307 13.172 77.307 13.7C77.307 13.78 77.303 13.868 77.295 13.964C77.295 14.052 77.291 14.152 77.283 14.264H72.339V13.412H76.107C76.083 12.908 75.915 12.516 75.603 12.236C75.291 11.948 74.903 11.804 74.439 11.804C74.111 11.804 73.811 11.88 73.539 12.032C73.267 12.176 73.047 12.392 72.879 12.68C72.719 12.96 72.639 13.316 72.639 13.748V14.084C72.639 14.532 72.719 14.912 72.879 15.224C73.047 15.528 73.267 15.76 73.539 15.92C73.811 16.072 74.107 16.148 74.427 16.148C74.811 16.148 75.127 16.064 75.375 15.896C75.623 15.728 75.807 15.5 75.927 15.212H77.127C77.023 15.58 76.847 15.912 76.599 16.208C76.351 16.496 76.043 16.724 75.675 16.892C75.315 17.06 74.899 17.144 74.427 17.144ZM88.1065 17L83.5465 12.38C83.1705 12.012 82.9025 11.676 82.7425 11.372C82.5905 11.068 82.5145 10.74 82.5145 10.388C82.5145 10.02 82.6025 9.692 82.7785 9.404C82.9625 9.108 83.2225 8.876 83.5585 8.708C83.9025 8.54 84.3105 8.456 84.7825 8.456C85.2545 8.456 85.6545 8.544 85.9825 8.72C86.3185 8.888 86.5745 9.12 86.7505 9.416C86.9345 9.712 87.0225 10.048 87.0145 10.424H85.8385C85.8385 10.088 85.7345 9.836 85.5265 9.668C85.3185 9.492 85.0705 9.404 84.7825 9.404C84.4385 9.404 84.1665 9.496 83.9665 9.68C83.7745 9.856 83.6785 10.088 83.6785 10.376C83.6785 10.608 83.7465 10.844 83.8825 11.084C84.0185 11.316 84.2225 11.576 84.4945 11.864L89.5825 17H88.1065ZM84.2905 17.144C83.7145 17.144 83.2065 17.04 82.7665 16.832C82.3265 16.616 81.9865 16.316 81.7465 15.932C81.5065 15.54 81.3865 15.088 81.3865 14.576C81.3865 14.168 81.4705 13.796 81.6385 13.46C81.8065 13.116 82.0545 12.816 82.3825 12.56C82.7105 12.296 83.1145 12.084 83.5945 11.924L84.0505 11.768L84.6385 12.536L84.1465 12.704C83.6105 12.888 83.2145 13.132 82.9585 13.436C82.7025 13.74 82.5745 14.1 82.5745 14.516C82.5745 14.82 82.6465 15.096 82.7905 15.344C82.9425 15.592 83.1505 15.784 83.4145 15.92C83.6785 16.056 83.9865 16.124 84.3385 16.124C84.7945 16.124 85.2025 16.028 85.5625 15.836C85.9225 15.636 86.2785 15.312 86.6305 14.864C86.7905 14.656 86.9545 14.42 87.1225 14.156C87.2905 13.892 87.4665 13.592 87.6505 13.256L87.9865 12.644H89.2345L88.7305 13.568C88.5225 13.976 88.3105 14.348 88.0945 14.684C87.8865 15.012 87.6745 15.304 87.4585 15.56C87.0025 16.12 86.5185 16.524 86.0065 16.772C85.5025 17.02 84.9305 17.144 84.2905 17.144ZM96.5654 17.144C95.9494 17.144 95.4094 17.036 94.9454 16.82C94.4814 16.596 94.1214 16.284 93.8654 15.884C93.6094 15.484 93.4814 15.016 93.4814 14.48H94.7414C94.7494 14.784 94.8214 15.064 94.9574 15.32C95.1014 15.568 95.3054 15.768 95.5694 15.92C95.8414 16.064 96.1734 16.136 96.5654 16.136C96.9014 16.136 97.1894 16.08 97.4294 15.968C97.6774 15.856 97.8654 15.704 97.9934 15.512C98.1214 15.312 98.1854 15.084 98.1854 14.828C98.1854 14.532 98.1174 14.288 97.9814 14.096C97.8454 13.904 97.6614 13.748 97.4294 13.628C97.2054 13.5 96.9414 13.388 96.6374 13.292C96.3414 13.196 96.0294 13.092 95.7014 12.98C95.0374 12.764 94.5414 12.484 94.2134 12.14C93.8934 11.796 93.7334 11.348 93.7334 10.796C93.7334 10.324 93.8454 9.916 94.0694 9.572C94.2934 9.22 94.6054 8.948 95.0054 8.756C95.4134 8.556 95.8934 8.456 96.4454 8.456C96.9894 8.456 97.4654 8.556 97.8734 8.756C98.2814 8.956 98.6014 9.232 98.8334 9.584C99.0654 9.936 99.1814 10.348 99.1814 10.82H97.9094C97.9094 10.604 97.8534 10.392 97.7414 10.184C97.6294 9.976 97.4614 9.808 97.2374 9.68C97.0134 9.544 96.7374 9.476 96.4094 9.476C96.1374 9.468 95.8934 9.512 95.6774 9.608C95.4614 9.704 95.2934 9.844 95.1734 10.028C95.0534 10.212 94.9934 10.432 94.9934 10.688C94.9934 10.944 95.0454 11.152 95.1494 11.312C95.2614 11.464 95.4214 11.596 95.6294 11.708C95.8374 11.82 96.0774 11.924 96.3494 12.02C96.6294 12.108 96.9374 12.208 97.2734 12.32C97.6894 12.456 98.0574 12.624 98.3774 12.824C98.7054 13.016 98.9614 13.268 99.1454 13.58C99.3374 13.884 99.4334 14.276 99.4334 14.756C99.4334 15.172 99.3254 15.56 99.1094 15.92C98.8934 16.28 98.5734 16.576 98.1494 16.808C97.7254 17.032 97.1974 17.144 96.5654 17.144ZM103.536 17.144C102.96 17.144 102.448 17.012 102 16.748C101.552 16.484 101.2 16.116 100.944 15.644C100.696 15.172 100.572 14.624 100.572 14C100.572 13.36 100.696 12.804 100.944 12.332C101.2 11.852 101.552 11.48 102 11.216C102.448 10.944 102.968 10.808 103.56 10.808C104.152 10.808 104.66 10.94 105.084 11.204C105.508 11.468 105.836 11.82 106.068 12.26C106.3 12.692 106.416 13.172 106.416 13.7C106.416 13.78 106.412 13.868 106.404 13.964C106.404 14.052 106.4 14.152 106.392 14.264H101.448V13.412H105.216C105.192 12.908 105.024 12.516 104.712 12.236C104.4 11.948 104.012 11.804 103.548 11.804C103.22 11.804 102.92 11.88 102.648 12.032C102.376 12.176 102.156 12.392 101.988 12.68C101.828 12.96 101.748 13.316 101.748 13.748V14.084C101.748 14.532 101.828 14.912 101.988 15.224C102.156 15.528 102.376 15.76 102.648 15.92C102.92 16.072 103.216 16.148 103.536 16.148C103.92 16.148 104.236 16.064 104.484 15.896C104.732 15.728 104.916 15.5 105.036 15.212H106.236C106.132 15.58 105.956 15.912 105.708 16.208C105.46 16.496 105.152 16.724 104.784 16.892C104.424 17.06 104.008 17.144 103.536 17.144ZM110.546 17.144C109.962 17.144 109.442 17.012 108.986 16.748C108.53 16.476 108.17 16.104 107.906 15.632C107.65 15.16 107.522 14.612 107.522 13.988C107.522 13.356 107.65 12.804 107.906 12.332C108.17 11.852 108.53 11.48 108.986 11.216C109.442 10.944 109.962 10.808 110.546 10.808C111.282 10.808 111.898 11 112.394 11.384C112.89 11.768 113.206 12.288 113.342 12.944H112.094C112.014 12.592 111.83 12.32 111.542 12.128C111.262 11.936 110.926 11.84 110.534 11.84C110.214 11.84 109.918 11.924 109.646 12.092C109.374 12.252 109.154 12.492 108.986 12.812C108.826 13.124 108.746 13.512 108.746 13.976C108.746 14.32 108.794 14.628 108.89 14.9C108.986 15.164 109.114 15.388 109.274 15.572C109.442 15.756 109.634 15.896 109.85 15.992C110.066 16.08 110.294 16.124 110.534 16.124C110.798 16.124 111.034 16.084 111.242 16.004C111.458 15.916 111.638 15.788 111.782 15.62C111.934 15.452 112.038 15.252 112.094 15.02H113.342C113.206 15.66 112.89 16.176 112.394 16.568C111.898 16.952 111.282 17.144 110.546 17.144ZM116.966 17.144C116.494 17.144 116.082 17.048 115.73 16.856C115.386 16.664 115.118 16.376 114.926 15.992C114.742 15.608 114.65 15.124 114.65 14.54V10.952H115.85V14.408C115.85 14.976 115.974 15.404 116.222 15.692C116.47 15.98 116.826 16.124 117.29 16.124C117.602 16.124 117.882 16.048 118.13 15.896C118.386 15.744 118.586 15.524 118.73 15.236C118.874 14.948 118.946 14.596 118.946 14.18V10.952H120.146V17H119.078L118.994 15.968C118.81 16.336 118.542 16.624 118.19 16.832C117.838 17.04 117.43 17.144 116.966 17.144ZM121.789 17V10.952H122.869L122.977 12.092C123.113 11.82 123.289 11.592 123.505 11.408C123.721 11.216 123.973 11.068 124.261 10.964C124.557 10.86 124.893 10.808 125.269 10.808V12.08H124.837C124.589 12.08 124.353 12.112 124.129 12.176C123.905 12.232 123.705 12.332 123.529 12.476C123.361 12.62 123.229 12.816 123.133 13.064C123.037 13.312 122.989 13.62 122.989 13.988V17H121.789ZM128.931 17.144C128.355 17.144 127.843 17.012 127.395 16.748C126.947 16.484 126.595 16.116 126.339 15.644C126.091 15.172 125.967 14.624 125.967 14C125.967 13.36 126.091 12.804 126.339 12.332C126.595 11.852 126.947 11.48 127.395 11.216C127.843 10.944 128.363 10.808 128.955 10.808C129.547 10.808 130.055 10.94 130.479 11.204C130.903 11.468 131.231 11.82 131.463 12.26C131.695 12.692 131.811 13.172 131.811 13.7C131.811 13.78 131.807 13.868 131.799 13.964C131.799 14.052 131.795 14.152 131.787 14.264H126.843V13.412H130.611C130.587 12.908 130.419 12.516 130.107 12.236C129.795 11.948 129.407 11.804 128.943 11.804C128.615 11.804 128.315 11.88 128.043 12.032C127.771 12.176 127.551 12.392 127.383 12.68C127.223 12.96 127.143 13.316 127.143 13.748V14.084C127.143 14.532 127.223 14.912 127.383 15.224C127.551 15.528 127.771 15.76 128.043 15.92C128.315 16.072 128.611 16.148 128.931 16.148C129.315 16.148 129.631 16.064 129.879 15.896C130.127 15.728 130.311 15.5 130.431 15.212H131.631C131.527 15.58 131.351 15.912 131.103 16.208C130.855 16.496 130.547 16.724 130.179 16.892C129.819 17.06 129.403 17.144 128.931 17.144Z" fill="#08878F" fill-opacity="0.7"/>
</svg>
