<svg width="134" height="57" viewBox="0 0 134 57" fill="none" xmlns="http://www.w3.org/2000/svg">
<path d="M30 12H119.76C126.52 12 132 17.3726 132 24V35C132 41.6274 126.52 47 119.76 47H30V12Z" fill="url(#paint0_linear_10308_1577)"/>
<path fill-rule="evenodd" clip-rule="evenodd" d="M23.9644 3.12734C24.4172 2.95755 24.9161 2.95755 25.3689 3.12734L44.0356 10.1273C44.8162 10.4201 45.3333 11.1663 45.3333 12V28.3333C45.3333 36.2262 40.1032 42.5673 35.317 46.7552C32.8819 48.8859 30.4563 50.5525 28.6433 51.6856C27.7348 52.2534 26.9748 52.6906 26.4374 52.9881C26.1685 53.1369 25.955 53.251 25.806 53.3292C25.7314 53.3684 25.673 53.3985 25.6318 53.4196L25.5831 53.4444L25.5687 53.4517L25.5641 53.454L25.5624 53.4549C25.5624 53.4549 25.5611 53.4555 24.6667 51.6667C23.7722 53.4555 23.771 53.4549 23.771 53.4549L23.7693 53.454L23.7646 53.4517L23.7502 53.4444L23.7015 53.4196C23.6603 53.3985 23.6019 53.3684 23.5274 53.3292C23.3783 53.251 23.1648 53.1369 22.896 52.9881C22.3585 52.6906 21.5985 52.2534 20.69 51.6856C18.8771 50.5525 16.4514 48.8859 14.0163 46.7552C9.23016 42.5673 4 36.2262 4 28.3333V12C4 11.1663 4.51715 10.4201 5.29775 10.1273L23.9644 3.12734ZM24.6667 51.6667L23.7722 53.4555C24.3353 53.737 24.998 53.737 25.5611 53.4555L24.6667 51.6667Z" fill="url(#paint1_linear_10308_1577)"/>
<path fill-rule="evenodd" clip-rule="evenodd" d="M23.9644 3.12734C24.4172 2.95755 24.9161 2.95755 25.3689 3.12734L44.0356 10.1273C44.8162 10.4201 45.3333 11.1663 45.3333 12V28.3333C45.3333 36.2262 40.1032 42.5673 35.317 46.7552C32.8819 48.8859 30.4563 50.5525 28.6433 51.6856C27.7348 52.2534 26.9748 52.6906 26.4374 52.9881C26.1685 53.1369 25.955 53.251 25.806 53.3292C25.7314 53.3684 25.673 53.3985 25.6318 53.4196L25.5831 53.4444L25.5687 53.4517L25.5641 53.454L25.5624 53.4549C25.5624 53.4549 25.5611 53.4555 24.6667 51.6667C23.7722 53.4555 23.771 53.4549 23.771 53.4549L23.7693 53.454L23.7646 53.4517L23.7502 53.4444L23.7015 53.4196C23.6603 53.3985 23.6019 53.3684 23.5274 53.3292C23.3783 53.251 23.1648 53.1369 22.896 52.9881C22.3585 52.6906 21.5985 52.2534 20.69 51.6856C18.8771 50.5525 16.4514 48.8859 14.0163 46.7552C9.23016 42.5673 4 36.2262 4 28.3333V12C4 11.1663 4.51715 10.4201 5.29775 10.1273L23.9644 3.12734ZM24.6667 51.6667L23.7722 53.4555C24.3353 53.737 24.998 53.737 25.5611 53.4555L24.6667 51.6667ZM24.6667 49.3957C25.1383 49.1314 25.7741 48.7619 26.5233 48.2936C28.2104 47.2392 30.4514 45.6975 32.683 43.7448C37.2302 39.7661 41.3333 34.4405 41.3333 28.3333V13.386L24.6667 7.136L8 13.386V28.3333C8 34.4405 12.1032 39.7661 16.6503 43.7448C18.8819 45.6975 21.1229 47.2392 22.81 48.2936C23.5593 48.7619 24.1951 49.1314 24.6667 49.3957Z" fill="url(#paint2_linear_10308_1577)"/>
<path d="M123.979 33.4546V40H122.924L119.84 35.5416H119.785V40H118.6V33.4546H119.661L122.742 37.9162H122.799V33.4546H123.979Z" fill="#FBED1F"/>
<path d="M117.478 36.7272C117.478 37.4325 117.346 38.0365 117.082 38.5394C116.819 39.0401 116.461 39.4236 116.008 39.6899C115.556 39.9563 115.044 40.0894 114.47 40.0894C113.897 40.0894 113.384 39.9563 112.93 39.6899C112.478 39.4215 112.12 39.0369 111.856 38.5362C111.594 38.0333 111.463 37.4303 111.463 36.7272C111.463 36.022 111.594 35.419 111.856 34.9183C112.12 34.4154 112.478 34.0308 112.93 33.7645C113.384 33.4982 113.897 33.365 114.47 33.365C115.044 33.365 115.556 33.4982 116.008 33.7645C116.461 34.0308 116.819 34.4154 117.082 34.9183C117.346 35.419 117.478 36.022 117.478 36.7272ZM116.286 36.7272C116.286 36.2308 116.208 35.8121 116.052 35.4712C115.899 35.1281 115.686 34.8693 115.413 34.6945C115.14 34.5177 114.826 34.4293 114.47 34.4293C114.115 34.4293 113.8 34.5177 113.528 34.6945C113.255 34.8693 113.041 35.1281 112.885 35.4712C112.732 35.8121 112.655 36.2308 112.655 36.7272C112.655 37.2237 112.732 37.6434 112.885 37.9864C113.041 38.3273 113.255 38.5862 113.528 38.7631C113.8 38.9378 114.115 39.0251 114.47 39.0251C114.826 39.0251 115.14 38.9378 115.413 38.7631C115.686 38.5862 115.899 38.3273 116.052 37.9864C116.208 37.6434 116.286 37.2237 116.286 36.7272Z" fill="#FBED1F"/>
<path d="M110.346 33.4546V40H109.16V33.4546H110.346Z" fill="#FBED1F"/>
<path d="M102.932 34.4486V33.4546H108.154V34.4486H106.131V40H104.955V34.4486H102.932Z" fill="#FBED1F"/>
<path d="M97.4277 40V33.4546H99.8823C100.385 33.4546 100.807 33.5483 101.148 33.7358C101.491 33.9233 101.75 34.1812 101.925 34.5093C102.101 34.8353 102.19 35.206 102.19 35.6215C102.19 36.0412 102.101 36.4141 101.925 36.7401C101.748 37.0661 101.487 37.3228 101.142 37.5103C100.796 37.6957 100.371 37.7884 99.8663 37.7884H98.2395V36.8136H99.7065C100.001 36.8136 100.241 36.7625 100.429 36.6602C100.616 36.5579 100.755 36.4173 100.844 36.2383C100.936 36.0593 100.982 35.8537 100.982 35.6215C100.982 35.3892 100.936 35.1847 100.844 35.0079C100.755 34.831 100.615 34.6936 100.426 34.5956C100.238 34.4954 99.9963 34.4454 99.7001 34.4454H98.6135V40H97.4277Z" fill="#FBED1F"/>
<path d="M90.6426 33.4546H91.9817L93.5829 36.3502H93.6468L95.248 33.4546H96.5872L94.2061 37.5583V40H93.0236V37.5583L90.6426 33.4546Z" fill="#FBED1F"/>
<path d="M85.4922 40V33.4546H87.9467C88.4496 33.4546 88.8715 33.5419 89.2124 33.7167C89.5554 33.8914 89.8143 34.1364 89.989 34.4517C90.1658 34.765 90.2543 35.1304 90.2543 35.548C90.2543 35.9677 90.1648 36.3321 89.9858 36.641C89.809 36.9478 89.5479 37.1854 89.2028 37.3537C88.8576 37.5199 88.4336 37.603 87.9308 37.603H86.1825V36.6187H87.771C88.065 36.6187 88.3058 36.5782 88.4933 36.4972C88.6808 36.4141 88.8192 36.2937 88.9087 36.1361C89.0004 35.9763 89.0462 35.7802 89.0462 35.548C89.0462 35.3157 89.0004 35.1176 88.9087 34.9535C88.8171 34.7873 88.6776 34.6616 88.4901 34.5764C88.3026 34.489 88.0607 34.4454 87.7646 34.4454H86.6779V40H85.4922ZM88.8736 37.0341L90.494 40H89.1708L87.5792 37.0341H88.8736Z" fill="#FBED1F"/>
<path d="M84.4055 35.6629H83.2102C83.1761 35.4669 83.1133 35.2933 83.0217 35.142C82.93 34.9886 82.8161 34.8586 82.6797 34.7521C82.5433 34.6455 82.3878 34.5656 82.2131 34.5124C82.0405 34.457 81.854 34.4293 81.6538 34.4293C81.2979 34.4293 80.9826 34.5188 80.7077 34.6977C80.4329 34.8746 80.2177 35.1345 80.0621 35.4776C79.9066 35.8185 79.8288 36.235 79.8288 36.7272C79.8288 37.2279 79.9066 37.6498 80.0621 37.9928C80.2198 38.3337 80.435 38.5916 80.7077 38.7663C80.9826 38.9389 81.2969 39.0251 81.6506 39.0251C81.8466 39.0251 82.0298 38.9996 82.2003 38.9484C82.3729 38.8952 82.5273 38.8174 82.6637 38.7151C82.8022 38.6129 82.9183 38.4871 83.0121 38.338C83.108 38.1889 83.174 38.0184 83.2102 37.8266L84.4055 37.833C84.3608 38.1441 84.2639 38.436 84.1147 38.7087C83.9677 38.9815 83.7749 39.2222 83.5362 39.431C83.2976 39.6377 83.0185 39.7996 82.6989 39.9168C82.3793 40.0319 82.0245 40.0894 81.6346 40.0894C81.0593 40.0894 80.5458 39.9563 80.0941 39.6899C79.6424 39.4236 79.2866 39.039 79.0266 38.5362C78.7667 38.0333 78.6367 37.4303 78.6367 36.7272C78.6367 36.022 78.7678 35.419 79.0298 34.9183C79.2919 34.4154 79.6488 34.0308 80.1005 33.7645C80.5522 33.4982 81.0636 33.365 81.6346 33.365C81.9989 33.365 82.3377 33.4161 82.6509 33.5184C82.9641 33.6207 83.2433 33.7709 83.4883 33.969C83.7333 34.1651 83.9347 34.4058 84.0923 34.6913C84.2521 34.9747 84.3565 35.2986 84.4055 35.6629Z" fill="#FBED1F"/>
<path d="M77.5117 33.4546V40H76.457L73.3729 35.5416H73.3185V40H72.1328V33.4546H73.1939L76.2749 37.9162H76.3324V33.4546H77.5117Z" fill="#FBED1F"/>
<path d="M66.666 40V33.4546H70.9231V34.4486H67.8517V36.2255H70.7026V37.2195H67.8517V39.0061H70.9487V40H66.666Z" fill="#FBED1F"/>
<path d="M59.3359 40V33.4546H60.5217V39.0061H63.4045V40H59.3359Z" fill="#FBED1F"/>
<path d="M57.0476 35.2538C57.0178 34.9747 56.892 34.7574 56.6705 34.6019C56.451 34.4463 56.1655 34.3685 55.8139 34.3685C55.5668 34.3685 55.3548 34.4058 55.1779 34.4804C55.0011 34.555 54.8658 34.6562 54.772 34.784C54.6783 34.9119 54.6303 35.0578 54.6282 35.2219C54.6282 35.3582 54.6591 35.4765 54.7209 35.5766C54.7848 35.6768 54.8711 35.762 54.9798 35.8323C55.0884 35.9005 55.2088 35.958 55.3409 36.0049C55.473 36.0518 55.6062 36.0912 55.7404 36.1232L56.354 36.2766C56.6012 36.3341 56.8388 36.4119 57.0668 36.5099C57.2969 36.6079 57.5025 36.7315 57.6836 36.8806C57.8668 37.0298 58.0117 37.2098 58.1183 37.4207C58.2248 37.6317 58.2781 37.8788 58.2781 38.1622C58.2781 38.5457 58.18 38.8835 57.984 39.1754C57.788 39.4651 57.5046 39.6921 57.1339 39.8561C56.7653 40.018 56.3189 40.099 55.7947 40.099C55.2855 40.099 54.8434 40.0202 54.4684 39.8625C54.0955 39.7048 53.8036 39.4747 53.5927 39.1722C53.3839 38.8696 53.271 38.501 53.2539 38.0663H54.4205C54.4375 38.2943 54.5078 38.484 54.6314 38.6352C54.755 38.7865 54.9158 38.8994 55.114 38.974C55.3143 39.0486 55.538 39.0859 55.7852 39.0859C56.043 39.0859 56.2688 39.0475 56.4627 38.9708C56.6587 38.892 56.8121 38.7833 56.9229 38.6448C57.0337 38.5042 57.0902 38.3401 57.0923 38.1526C57.0902 37.9822 57.0401 37.8416 56.9421 37.7308C56.8441 37.6178 56.7067 37.5241 56.5298 37.4495C56.3551 37.3728 56.1506 37.3046 55.9162 37.245L55.1715 37.0532C54.6325 36.9147 54.2063 36.7048 53.8931 36.4236C53.582 36.1402 53.4265 35.7641 53.4265 35.2954C53.4265 34.9097 53.5309 34.572 53.7397 34.2822C53.9506 33.9925 54.2372 33.7677 54.5994 33.6079C54.9616 33.446 55.3718 33.365 55.8299 33.365C56.2944 33.365 56.7013 33.446 57.0508 33.6079C57.4023 33.7677 57.6783 33.9903 57.8786 34.2759C58.0788 34.5592 58.1822 34.8852 58.1886 35.2538H57.0476Z" fill="#FBED1F"/>
<path d="M51.2019 35.2538C51.1721 34.9747 51.0463 34.7574 50.8248 34.6019C50.6053 34.4463 50.3198 34.3685 49.9682 34.3685C49.7211 34.3685 49.5091 34.4058 49.3322 34.4804C49.1554 34.555 49.0201 34.6562 48.9263 34.784C48.8326 34.9119 48.7846 35.0578 48.7825 35.2219C48.7825 35.3582 48.8134 35.4765 48.8752 35.5766C48.9391 35.6768 49.0254 35.762 49.1341 35.8323C49.2427 35.9005 49.3631 35.958 49.4952 36.0049C49.6273 36.0518 49.7605 36.0912 49.8947 36.1232L50.5083 36.2766C50.7555 36.3341 50.9931 36.4119 51.2211 36.5099C51.4512 36.6079 51.6568 36.7315 51.8379 36.8806C52.0211 37.0298 52.166 37.2098 52.2725 37.4207C52.3791 37.6317 52.4324 37.8788 52.4324 38.1622C52.4324 38.5457 52.3343 38.8835 52.1383 39.1754C51.9423 39.4651 51.6589 39.6921 51.2882 39.8561C50.9196 40.018 50.4732 40.099 49.949 40.099C49.4398 40.099 48.9977 40.0202 48.6227 39.8625C48.2498 39.7048 47.9579 39.4747 47.747 39.1722C47.5382 38.8696 47.4252 38.501 47.4082 38.0663H48.5748C48.5918 38.2943 48.6621 38.484 48.7857 38.6352C48.9093 38.7865 49.0701 38.8994 49.2683 38.974C49.4686 39.0486 49.6923 39.0859 49.9395 39.0859C50.1973 39.0859 50.4231 39.0475 50.617 38.9708C50.813 38.892 50.9664 38.7833 51.0772 38.6448C51.188 38.5042 51.2445 38.3401 51.2466 38.1526C51.2445 37.9822 51.1944 37.8416 51.0964 37.7308C50.9984 37.6178 50.861 37.5241 50.6841 37.4495C50.5094 37.3728 50.3049 37.3046 50.0705 37.245L49.3258 37.0532C48.7868 36.9147 48.3606 36.7048 48.0474 36.4236C47.7363 36.1402 47.5808 35.7641 47.5808 35.2954C47.5808 34.9097 47.6852 34.572 47.894 34.2822C48.1049 33.9925 48.3915 33.7677 48.7537 33.6079C49.1159 33.446 49.5261 33.365 49.9842 33.365C50.4487 33.365 50.8556 33.446 51.2051 33.6079C51.5566 33.7677 51.8326 33.9903 52.0328 34.2759C52.2331 34.5592 52.3365 34.8852 52.3429 35.2538H51.2019Z" fill="#FBED1F"/>
<path d="M105.732 28.9999V18.8181H112.832V20.8167H108.193V22.9048H112.469V24.9083H108.193V27.0014H112.832V28.9999H105.732Z" fill="#F7F9FF"/>
<path d="M94.4629 28.9999V18.8181H98.6689C99.4312 18.8181 100.089 18.9557 100.643 19.2308C101.199 19.5025 101.629 19.8936 101.93 20.4041C102.232 20.9112 102.383 21.5127 102.383 22.2087C102.383 22.9147 102.229 23.5146 101.92 24.0085C101.612 24.499 101.175 24.8735 100.608 25.132C100.041 25.3872 99.3699 25.5148 98.5943 25.5148H95.9345V23.5759H98.1369C98.5081 23.5759 98.818 23.5279 99.0666 23.4318C99.3185 23.3323 99.5091 23.1832 99.6383 22.9843C99.7676 22.7821 99.8322 22.5236 99.8322 22.2087C99.8322 21.8939 99.7676 21.6337 99.6383 21.4282C99.5091 21.2194 99.3185 21.0636 99.0666 20.9609C98.8147 20.8548 98.5048 20.8018 98.1369 20.8018H96.9238V28.9999H94.4629ZM100.195 24.3465L102.731 28.9999H100.046L97.5602 24.3465H100.195Z" fill="#F7F9FF"/>
<path d="M88.4645 18.8181H90.9205V25.3856C90.9205 26.1446 90.7398 26.8058 90.3786 27.3693C90.0173 27.9294 89.5135 28.3636 88.8672 28.6718C88.2209 28.9767 87.4702 29.1292 86.6151 29.1292C85.75 29.1292 84.9943 28.9767 84.348 28.6718C83.7017 28.3636 83.1996 27.9294 82.8416 27.3693C82.4837 26.8058 82.3047 26.1446 82.3047 25.3856V18.8181H84.7656V25.1718C84.7656 25.5231 84.8419 25.8363 84.9943 26.1114C85.1501 26.3865 85.3672 26.602 85.6456 26.7577C85.924 26.9135 86.2472 26.9914 86.6151 26.9914C86.983 26.9914 87.3045 26.9135 87.5795 26.7577C87.858 26.602 88.075 26.3865 88.2308 26.1114C88.3866 25.8363 88.4645 25.5231 88.4645 25.1718V18.8181Z" fill="#F7F9FF"/>
<path d="M78.8965 22.5071H76.4107C76.3775 22.2519 76.3096 22.0215 76.2069 21.816C76.1041 21.6105 75.9682 21.4349 75.7992 21.289C75.6301 21.1432 75.4296 21.0322 75.1976 20.9559C74.9689 20.8764 74.7154 20.8366 74.437 20.8366C73.9431 20.8366 73.5172 20.9576 73.1593 21.1996C72.8046 21.4415 72.5312 21.7912 72.339 22.2486C72.15 22.7059 72.0556 23.2594 72.0556 23.9091C72.0556 24.5852 72.1517 25.152 72.3439 25.6094C72.5395 26.0634 72.8129 26.4065 73.1642 26.6385C73.5189 26.8672 73.9382 26.9815 74.4221 26.9815C74.6938 26.9815 74.9408 26.9467 75.1628 26.8771C75.3882 26.8075 75.5854 26.7064 75.7544 26.5738C75.9268 26.438 76.0676 26.2739 76.177 26.0817C76.2897 25.8861 76.3676 25.6657 76.4107 25.4204L78.8965 25.4353C78.8534 25.8861 78.7225 26.3302 78.5037 26.7677C78.2883 27.2052 77.9917 27.6046 77.6138 27.9659C77.236 28.3238 76.7753 28.6089 76.2317 28.821C75.6915 29.0331 75.0717 29.1392 74.3723 29.1392C73.4509 29.1392 72.6257 28.937 71.8965 28.5326C71.1706 28.125 70.5972 27.5317 70.1763 26.7528C69.7554 25.9739 69.5449 25.026 69.5449 23.9091C69.5449 22.7888 69.7587 21.8392 70.1863 21.0603C70.6138 20.2815 71.1922 19.6898 71.9213 19.2855C72.6505 18.8811 73.4675 18.679 74.3723 18.679C74.9888 18.679 75.5589 18.7651 76.0826 18.9375C76.6062 19.1065 77.0669 19.3551 77.4647 19.6832C77.8624 20.008 78.1855 20.4074 78.4341 20.8814C78.6827 21.3553 78.8368 21.8972 78.8965 22.5071Z" fill="#F7F9FF"/>
<path d="M59 29.1818V19H66.0994V20.9986H61.4609V23.0866H65.7365V25.0902H61.4609V27.1832H66.0994V29.1818H59Z" fill="#F7F9FF"/>
<path d="M53.2734 21.8707C53.2403 21.5061 53.0928 21.2228 52.831 21.0206C52.5724 20.8151 52.2029 20.7123 51.7223 20.7123C51.4041 20.7123 51.139 20.7538 50.9268 20.8366C50.7147 20.9195 50.5556 21.0338 50.4496 21.1797C50.3435 21.3222 50.2888 21.4862 50.2855 21.6719C50.2789 21.8243 50.3087 21.9585 50.375 22.0746C50.4446 22.1906 50.544 22.2933 50.6733 22.3828C50.8059 22.469 50.965 22.5452 51.1506 22.6115C51.3362 22.6778 51.545 22.7358 51.777 22.7855L52.652 22.9844C53.1558 23.0937 53.5999 23.2396 53.9844 23.4219C54.3722 23.6041 54.697 23.8212 54.9588 24.0731C55.224 24.325 55.4245 24.615 55.5604 24.9432C55.6963 25.2713 55.7659 25.6392 55.7692 26.0469C55.7659 26.6898 55.6035 27.2417 55.282 27.7024C54.9605 28.1631 54.4981 28.5161 53.8949 28.7613C53.295 29.0066 52.5708 29.1292 51.7223 29.1292C50.8705 29.1292 50.1281 29.0016 49.495 28.7464C48.862 28.4912 48.3698 28.1034 48.0185 27.5831C47.6671 27.0627 47.4865 26.4048 47.4766 25.6094H49.8331C49.853 25.9375 49.9408 26.2109 50.0966 26.4297C50.2524 26.6484 50.4661 26.8141 50.7379 26.9268C51.013 27.0395 51.3312 27.0959 51.6925 27.0959C52.0239 27.0959 52.3056 27.0511 52.5376 26.9616C52.773 26.8721 52.9536 26.7478 53.0795 26.5888C53.2055 26.4297 53.2701 26.2474 53.2734 26.0419C53.2701 25.8496 53.2105 25.6856 53.0945 25.5497C52.9785 25.4105 52.7995 25.2912 52.5575 25.1917C52.3189 25.089 52.014 24.9945 51.6428 24.9084L50.5788 24.6598C49.6972 24.4576 49.0028 24.1311 48.4957 23.6804C47.9886 23.2263 47.7367 22.6131 47.7401 21.8409C47.7367 21.2112 47.9058 20.6593 48.2472 20.1853C48.5885 19.7114 49.0608 19.3418 49.6641 19.0767C50.2673 18.8115 50.955 18.679 51.7273 18.679C52.5161 18.679 53.2005 18.8132 53.7805 19.0817C54.3639 19.3468 54.8163 19.7197 55.1378 20.2003C55.4593 20.6808 55.6233 21.2377 55.63 21.8707H53.2734Z" fill="#F7F9FF"/>
<path d="M34 25.5729V20.9611C34 20.0997 33.3389 19.1227 32.518 18.797L26.5791 16.4018C25.2464 15.8661 23.743 15.8661 22.4102 16.4018L16.4714 18.797C15.6611 19.1227 15 20.0997 15 20.9611V25.5729C15 30.71 18.7851 35.5214 23.9562 36.9291C24.3081 37.0236 24.6919 37.0236 25.0438 36.9291C30.2149 35.5214 34 30.71 34 25.5729ZM25.2997 27.4113V30.1742C25.2997 30.6049 24.9371 30.9621 24.5 30.9621C24.0629 30.9621 23.7003 30.6049 23.7003 30.1742V27.4113C22.6235 27.0752 21.8345 26.0877 21.8345 24.9216C21.8345 23.4719 23.0286 22.2953 24.5 22.2953C25.9714 22.2953 27.1655 23.4719 27.1655 24.9216C27.1655 26.0982 26.3765 27.0752 25.2997 27.4113Z" fill="url(#paint3_linear_10308_1577)"/>
<defs>
<linearGradient id="paint0_linear_10308_1577" x1="30" y1="30" x2="132" y2="30" gradientUnits="userSpaceOnUse">
<stop stop-color="#014F54"/>
<stop offset="1" stop-color="#08878F"/>
</linearGradient>
<linearGradient id="paint1_linear_10308_1577" x1="24.6667" y1="5" x2="24.6667" y2="51.6667" gradientUnits="userSpaceOnUse">
<stop stop-color="#08878F"/>
<stop offset="0.78007" stop-color="#014F54"/>
</linearGradient>
<linearGradient id="paint2_linear_10308_1577" x1="25" y1="3" x2="24.6667" y2="51.6667" gradientUnits="userSpaceOnUse">
<stop offset="0.668817" stop-color="#014F54"/>
<stop offset="1" stop-color="#08878F"/>
</linearGradient>
<linearGradient id="paint3_linear_10308_1577" x1="30.8975" y1="15.992" x2="18.3595" y2="34.5497" gradientUnits="userSpaceOnUse">
<stop stop-color="#FBED1F"/>
<stop offset="0.318208" stop-color="#DFE056"/>
<stop offset="0.503857" stop-color="#CFD876"/>
<stop offset="1" stop-color="#FBED1F"/>
</linearGradient>
</defs>
</svg>
