<svg width="390" height="105" viewBox="0 0 390 105" fill="none" xmlns="http://www.w3.org/2000/svg">
<path d="M158 36H247.76C254.52 36 260 41.3726 260 48V59C260 65.6274 254.52 71 247.76 71H158V36Z" fill="url(#paint0_linear_10322_3910)"/>
<path fill-rule="evenodd" clip-rule="evenodd" d="M151.964 27.1273C152.417 26.9576 152.916 26.9576 153.369 27.1273L172.036 34.1273C172.816 34.4201 173.333 35.1663 173.333 36V52.3333C173.333 60.2262 168.103 66.5673 163.317 70.7552C160.882 72.8859 158.456 74.5525 156.643 75.6856C155.735 76.2534 154.975 76.6906 154.437 76.9881C154.169 77.1369 153.955 77.251 153.806 77.3292C153.731 77.3684 153.673 77.3985 153.632 77.4196L153.583 77.4444L153.569 77.4517L153.564 77.454L153.562 77.4549C153.562 77.4549 153.561 77.4555 152.667 75.6667C151.772 77.4555 151.771 77.4549 151.771 77.4549L151.769 77.454L151.765 77.4517L151.75 77.4444L151.702 77.4196C151.66 77.3985 151.602 77.3684 151.527 77.3292C151.378 77.251 151.165 77.1369 150.896 76.9881C150.359 76.6906 149.599 76.2534 148.69 75.6856C146.877 74.5525 144.451 72.8859 142.016 70.7552C137.23 66.5673 132 60.2262 132 52.3333V36C132 35.1663 132.517 34.4201 133.298 34.1273L151.964 27.1273ZM152.667 75.6667L151.772 77.4555C152.335 77.737 152.998 77.737 153.561 77.4555L152.667 75.6667Z" fill="url(#paint1_linear_10322_3910)"/>
<path fill-rule="evenodd" clip-rule="evenodd" d="M151.964 27.1273C152.417 26.9576 152.916 26.9576 153.369 27.1273L172.036 34.1273C172.816 34.4201 173.333 35.1663 173.333 36V52.3333C173.333 60.2262 168.103 66.5673 163.317 70.7552C160.882 72.8859 158.456 74.5525 156.643 75.6856C155.735 76.2534 154.975 76.6906 154.437 76.9881C154.169 77.1369 153.955 77.251 153.806 77.3292C153.731 77.3684 153.673 77.3985 153.632 77.4196L153.583 77.4444L153.569 77.4517L153.564 77.454L153.562 77.4549C153.562 77.4549 153.561 77.4555 152.667 75.6667C151.772 77.4555 151.771 77.4549 151.771 77.4549L151.769 77.454L151.765 77.4517L151.75 77.4444L151.702 77.4196C151.66 77.3985 151.602 77.3684 151.527 77.3292C151.378 77.251 151.165 77.1369 150.896 76.9881C150.359 76.6906 149.599 76.2534 148.69 75.6856C146.877 74.5525 144.451 72.8859 142.016 70.7552C137.23 66.5673 132 60.2262 132 52.3333V36C132 35.1663 132.517 34.4201 133.298 34.1273L151.964 27.1273ZM152.667 75.6667L151.772 77.4555C152.335 77.737 152.998 77.737 153.561 77.4555L152.667 75.6667ZM152.667 73.3957C153.138 73.1314 153.774 72.7619 154.523 72.2936C156.21 71.2392 158.451 69.6975 160.683 67.7448C165.23 63.7661 169.333 58.4405 169.333 52.3333V37.386L152.667 31.136L136 37.386V52.3333C136 58.4405 140.103 63.7661 144.65 67.7448C146.882 69.6975 149.123 71.2392 150.81 72.2936C151.559 72.7619 152.195 73.1314 152.667 73.3957Z" fill="url(#paint2_linear_10322_3910)"/>
<path d="M251.979 57.4546V64H250.924L247.84 59.5416H247.785V64H246.6V57.4546H247.661L250.742 61.9162H250.799V57.4546H251.979Z" fill="#FBED1F"/>
<path d="M245.478 60.7272C245.478 61.4325 245.346 62.0365 245.082 62.5394C244.819 63.0401 244.461 63.4236 244.008 63.6899C243.556 63.9563 243.044 64.0894 242.47 64.0894C241.897 64.0894 241.384 63.9563 240.93 63.6899C240.478 63.4215 240.12 63.0369 239.856 62.5362C239.594 62.0333 239.463 61.4303 239.463 60.7272C239.463 60.022 239.594 59.419 239.856 58.9183C240.12 58.4154 240.478 58.0308 240.93 57.7645C241.384 57.4982 241.897 57.365 242.47 57.365C243.044 57.365 243.556 57.4982 244.008 57.7645C244.461 58.0308 244.819 58.4154 245.082 58.9183C245.346 59.419 245.478 60.022 245.478 60.7272ZM244.286 60.7272C244.286 60.2308 244.208 59.8121 244.052 59.4712C243.899 59.1281 243.686 58.8693 243.413 58.6945C243.14 58.5177 242.826 58.4293 242.47 58.4293C242.115 58.4293 241.8 58.5177 241.528 58.6945C241.255 58.8693 241.041 59.1281 240.885 59.4712C240.732 59.8121 240.655 60.2308 240.655 60.7272C240.655 61.2237 240.732 61.6434 240.885 61.9864C241.041 62.3273 241.255 62.5862 241.528 62.7631C241.8 62.9378 242.115 63.0251 242.47 63.0251C242.826 63.0251 243.14 62.9378 243.413 62.7631C243.686 62.5862 243.899 62.3273 244.052 61.9864C244.208 61.6434 244.286 61.2237 244.286 60.7272Z" fill="#FBED1F"/>
<path d="M238.346 57.4546V64H237.16V57.4546H238.346Z" fill="#FBED1F"/>
<path d="M230.932 58.4486V57.4546H236.154V58.4486H234.131V64H232.955V58.4486H230.932Z" fill="#FBED1F"/>
<path d="M225.428 64V57.4546H227.882C228.385 57.4546 228.807 57.5483 229.148 57.7358C229.491 57.9233 229.75 58.1812 229.925 58.5093C230.101 58.8353 230.19 59.206 230.19 59.6215C230.19 60.0412 230.101 60.4141 229.925 60.7401C229.748 61.0661 229.487 61.3228 229.142 61.5103C228.796 61.6957 228.371 61.7884 227.866 61.7884H226.24V60.8136H227.707C228.001 60.8136 228.241 60.7625 228.429 60.6602C228.616 60.5579 228.755 60.4173 228.844 60.2383C228.936 60.0593 228.982 59.8537 228.982 59.6215C228.982 59.3892 228.936 59.1847 228.844 59.0079C228.755 58.831 228.615 58.6936 228.426 58.5956C228.238 58.4954 227.996 58.4454 227.7 58.4454H226.613V64H225.428Z" fill="#FBED1F"/>
<path d="M218.643 57.4546H219.982L221.583 60.3502H221.647L223.248 57.4546H224.587L222.206 61.5583V64H221.024V61.5583L218.643 57.4546Z" fill="#FBED1F"/>
<path d="M213.492 64V57.4546H215.947C216.45 57.4546 216.871 57.5419 217.212 57.7167C217.555 57.8914 217.814 58.1364 217.989 58.4517C218.166 58.765 218.254 59.1304 218.254 59.548C218.254 59.9677 218.165 60.3321 217.986 60.641C217.809 60.9478 217.548 61.1854 217.203 61.3537C216.858 61.5199 216.434 61.603 215.931 61.603H214.183V60.6187H215.771C216.065 60.6187 216.306 60.5782 216.493 60.4972C216.681 60.4141 216.819 60.2937 216.909 60.1361C217 59.9763 217.046 59.7802 217.046 59.548C217.046 59.3157 217 59.1176 216.909 58.9535C216.817 58.7873 216.678 58.6616 216.49 58.5764C216.303 58.489 216.061 58.4454 215.765 58.4454H214.678V64H213.492ZM216.874 61.0341L218.494 64H217.171L215.579 61.0341H216.874Z" fill="#FBED1F"/>
<path d="M212.406 59.6629H211.21C211.176 59.4669 211.113 59.2933 211.022 59.142C210.93 58.9886 210.816 58.8586 210.68 58.7521C210.543 58.6455 210.388 58.5656 210.213 58.5124C210.04 58.457 209.854 58.4293 209.654 58.4293C209.298 58.4293 208.983 58.5188 208.708 58.6977C208.433 58.8746 208.218 59.1345 208.062 59.4776C207.907 59.8185 207.829 60.235 207.829 60.7272C207.829 61.2279 207.907 61.6498 208.062 61.9928C208.22 62.3337 208.435 62.5916 208.708 62.7663C208.983 62.9389 209.297 63.0251 209.651 63.0251C209.847 63.0251 210.03 62.9996 210.2 62.9484C210.373 62.8952 210.527 62.8174 210.664 62.7151C210.802 62.6129 210.918 62.4871 211.012 62.338C211.108 62.1889 211.174 62.0184 211.21 61.8266L212.406 61.833C212.361 62.1441 212.264 62.436 212.115 62.7087C211.968 62.9815 211.775 63.2222 211.536 63.431C211.298 63.6377 211.018 63.7996 210.699 63.9168C210.379 64.0319 210.025 64.0894 209.635 64.0894C209.059 64.0894 208.546 63.9563 208.094 63.6899C207.642 63.4236 207.287 63.039 207.027 62.5362C206.767 62.0333 206.637 61.4303 206.637 60.7272C206.637 60.022 206.768 59.419 207.03 58.9183C207.292 58.4154 207.649 58.0308 208.1 57.7645C208.552 57.4982 209.064 57.365 209.635 57.365C209.999 57.365 210.338 57.4161 210.651 57.5184C210.964 57.6207 211.243 57.7709 211.488 57.969C211.733 58.1651 211.935 58.4058 212.092 58.6913C212.252 58.9747 212.357 59.2986 212.406 59.6629Z" fill="#FBED1F"/>
<path d="M205.512 57.4546V64H204.457L201.373 59.5416H201.319V64H200.133V57.4546H201.194L204.275 61.9162H204.332V57.4546H205.512Z" fill="#FBED1F"/>
<path d="M194.666 64V57.4546H198.923V58.4486H195.852V60.2255H198.703V61.2195H195.852V63.0061H198.949V64H194.666Z" fill="#FBED1F"/>
<path d="M187.336 64V57.4546H188.522V63.0061H191.404V64H187.336Z" fill="#FBED1F"/>
<path d="M185.048 59.2538C185.018 58.9747 184.892 58.7574 184.67 58.6019C184.451 58.4463 184.165 58.3685 183.814 58.3685C183.567 58.3685 183.355 58.4058 183.178 58.4804C183.001 58.555 182.866 58.6562 182.772 58.784C182.678 58.9119 182.63 59.0578 182.628 59.2219C182.628 59.3582 182.659 59.4765 182.721 59.5766C182.785 59.6768 182.871 59.762 182.98 59.8323C183.088 59.9005 183.209 59.958 183.341 60.0049C183.473 60.0518 183.606 60.0912 183.74 60.1232L184.354 60.2766C184.601 60.3341 184.839 60.4119 185.067 60.5099C185.297 60.6079 185.502 60.7315 185.684 60.8806C185.867 61.0298 186.012 61.2098 186.118 61.4207C186.225 61.6317 186.278 61.8788 186.278 62.1622C186.278 62.5457 186.18 62.8835 185.984 63.1754C185.788 63.4651 185.505 63.6921 185.134 63.8561C184.765 64.018 184.319 64.099 183.795 64.099C183.286 64.099 182.843 64.0202 182.468 63.8625C182.096 63.7048 181.804 63.4747 181.593 63.1722C181.384 62.8696 181.271 62.501 181.254 62.0663H182.42C182.438 62.2943 182.508 62.484 182.631 62.6352C182.755 62.7865 182.916 62.8994 183.114 62.974C183.314 63.0486 183.538 63.0859 183.785 63.0859C184.043 63.0859 184.269 63.0475 184.463 62.9708C184.659 62.892 184.812 62.7833 184.923 62.6448C185.034 62.5042 185.09 62.3401 185.092 62.1526C185.09 61.9822 185.04 61.8416 184.942 61.7308C184.844 61.6178 184.707 61.5241 184.53 61.4495C184.355 61.3728 184.151 61.3046 183.916 61.245L183.172 61.0532C182.632 60.9147 182.206 60.7048 181.893 60.4236C181.582 60.1402 181.426 59.7641 181.426 59.2954C181.426 58.9097 181.531 58.572 181.74 58.2822C181.951 57.9925 182.237 57.7677 182.599 57.6079C182.962 57.446 183.372 57.365 183.83 57.365C184.294 57.365 184.701 57.446 185.051 57.6079C185.402 57.7677 185.678 57.9903 185.879 58.2759C186.079 58.5592 186.182 58.8852 186.189 59.2538H185.048Z" fill="#FBED1F"/>
<path d="M179.202 59.2538C179.172 58.9747 179.046 58.7574 178.825 58.6019C178.605 58.4463 178.32 58.3685 177.968 58.3685C177.721 58.3685 177.509 58.4058 177.332 58.4804C177.155 58.555 177.02 58.6562 176.926 58.784C176.833 58.9119 176.785 59.0578 176.782 59.2219C176.782 59.3582 176.813 59.4765 176.875 59.5766C176.939 59.6768 177.025 59.762 177.134 59.8323C177.243 59.9005 177.363 59.958 177.495 60.0049C177.627 60.0518 177.76 60.0912 177.895 60.1232L178.508 60.2766C178.756 60.3341 178.993 60.4119 179.221 60.5099C179.451 60.6079 179.657 60.7315 179.838 60.8806C180.021 61.0298 180.166 61.2098 180.273 61.4207C180.379 61.6317 180.432 61.8788 180.432 62.1622C180.432 62.5457 180.334 62.8835 180.138 63.1754C179.942 63.4651 179.659 63.6921 179.288 63.8561C178.92 64.018 178.473 64.099 177.949 64.099C177.44 64.099 176.998 64.0202 176.623 63.8625C176.25 63.7048 175.958 63.4747 175.747 63.1722C175.538 62.8696 175.425 62.501 175.408 62.0663H176.575C176.592 62.2943 176.662 62.484 176.786 62.6352C176.909 62.7865 177.07 62.8994 177.268 62.974C177.469 63.0486 177.692 63.0859 177.939 63.0859C178.197 63.0859 178.423 63.0475 178.617 62.9708C178.813 62.892 178.966 62.7833 179.077 62.6448C179.188 62.5042 179.244 62.3401 179.247 62.1526C179.244 61.9822 179.194 61.8416 179.096 61.7308C178.998 61.6178 178.861 61.5241 178.684 61.4495C178.509 61.3728 178.305 61.3046 178.07 61.245L177.326 61.0532C176.787 60.9147 176.361 60.7048 176.047 60.4236C175.736 60.1402 175.581 59.7641 175.581 59.2954C175.581 58.9097 175.685 58.572 175.894 58.2822C176.105 57.9925 176.392 57.7677 176.754 57.6079C177.116 57.446 177.526 57.365 177.984 57.365C178.449 57.365 178.856 57.446 179.205 57.6079C179.557 57.7677 179.833 57.9903 180.033 58.2759C180.233 58.5592 180.336 58.8852 180.343 59.2538H179.202Z" fill="#FBED1F"/>
<path d="M233.732 52.9999V42.8181H240.832V44.8167H236.193V46.9048H240.469V48.9083H236.193V51.0014H240.832V52.9999H233.732Z" fill="#F7F9FF"/>
<path d="M222.463 52.9999V42.8181H226.669C227.431 42.8181 228.089 42.9557 228.643 43.2308C229.199 43.5025 229.629 43.8936 229.93 44.4041C230.232 44.9112 230.383 45.5127 230.383 46.2087C230.383 46.9147 230.229 47.5146 229.92 48.0085C229.612 48.499 229.175 48.8735 228.608 49.132C228.041 49.3872 227.37 49.5148 226.594 49.5148H223.934V47.5759H226.137C226.508 47.5759 226.818 47.5279 227.067 47.4318C227.318 47.3323 227.509 47.1832 227.638 46.9843C227.768 46.7821 227.832 46.5236 227.832 46.2087C227.832 45.8939 227.768 45.6337 227.638 45.4282C227.509 45.2194 227.318 45.0636 227.067 44.9609C226.815 44.8548 226.505 44.8018 226.137 44.8018H224.924V52.9999H222.463ZM228.195 48.3465L230.731 52.9999H228.046L225.56 48.3465H228.195Z" fill="#F7F9FF"/>
<path d="M216.464 42.8181H218.92V49.3856C218.92 50.1446 218.74 50.8058 218.379 51.3693C218.017 51.9294 217.513 52.3636 216.867 52.6718C216.221 52.9767 215.47 53.1292 214.615 53.1292C213.75 53.1292 212.994 52.9767 212.348 52.6718C211.702 52.3636 211.2 51.9294 210.842 51.3693C210.484 50.8058 210.305 50.1446 210.305 49.3856V42.8181H212.766V49.1718C212.766 49.5231 212.842 49.8363 212.994 50.1114C213.15 50.3865 213.367 50.602 213.646 50.7577C213.924 50.9135 214.247 50.9914 214.615 50.9914C214.983 50.9914 215.304 50.9135 215.58 50.7577C215.858 50.602 216.075 50.3865 216.231 50.1114C216.387 49.8363 216.464 49.5231 216.464 49.1718V42.8181Z" fill="#F7F9FF"/>
<path d="M206.896 46.5071H204.411C204.378 46.2519 204.31 46.0215 204.207 45.816C204.104 45.6105 203.968 45.4349 203.799 45.289C203.63 45.1432 203.43 45.0322 203.198 44.9559C202.969 44.8764 202.715 44.8366 202.437 44.8366C201.943 44.8366 201.517 44.9576 201.159 45.1996C200.805 45.4415 200.531 45.7912 200.339 46.2486C200.15 46.7059 200.056 47.2594 200.056 47.9091C200.056 48.5852 200.152 49.152 200.344 49.6094C200.539 50.0634 200.813 50.4065 201.164 50.6385C201.519 50.8672 201.938 50.9815 202.422 50.9815C202.694 50.9815 202.941 50.9467 203.163 50.8771C203.388 50.8075 203.585 50.7064 203.754 50.5738C203.927 50.438 204.068 50.2739 204.177 50.0817C204.29 49.8861 204.368 49.6657 204.411 49.4204L206.896 49.4353C206.853 49.8861 206.722 50.3302 206.504 50.7677C206.288 51.2052 205.992 51.6046 205.614 51.9659C205.236 52.3238 204.775 52.6089 204.232 52.821C203.691 53.0331 203.072 53.1392 202.372 53.1392C201.451 53.1392 200.626 52.937 199.896 52.5326C199.171 52.125 198.597 51.5317 198.176 50.7528C197.755 49.9739 197.545 49.026 197.545 47.9091C197.545 46.7888 197.759 45.8392 198.186 45.0603C198.614 44.2815 199.192 43.6898 199.921 43.2855C200.651 42.8811 201.468 42.679 202.372 42.679C202.989 42.679 203.559 42.7651 204.083 42.9375C204.606 43.1065 205.067 43.3551 205.465 43.6832C205.862 44.008 206.186 44.4074 206.434 44.8814C206.683 45.3553 206.837 45.8972 206.896 46.5071Z" fill="#F7F9FF"/>
<path d="M187 53.1818V43H194.099V44.9986H189.461V47.0866H193.737V49.0902H189.461V51.1832H194.099V53.1818H187Z" fill="#F7F9FF"/>
<path d="M181.273 45.8707C181.24 45.5061 181.093 45.2228 180.831 45.0206C180.572 44.8151 180.203 44.7123 179.722 44.7123C179.404 44.7123 179.139 44.7538 178.927 44.8366C178.715 44.9195 178.556 45.0338 178.45 45.1797C178.344 45.3222 178.289 45.4862 178.286 45.6719C178.279 45.8243 178.309 45.9585 178.375 46.0746C178.445 46.1906 178.544 46.2933 178.673 46.3828C178.806 46.469 178.965 46.5452 179.151 46.6115C179.336 46.6778 179.545 46.7358 179.777 46.7855L180.652 46.9844C181.156 47.0937 181.6 47.2396 181.984 47.4219C182.372 47.6041 182.697 47.8212 182.959 48.0731C183.224 48.325 183.424 48.615 183.56 48.9432C183.696 49.2713 183.766 49.6392 183.769 50.0469C183.766 50.6898 183.603 51.2417 183.282 51.7024C182.96 52.1631 182.498 52.5161 181.895 52.7613C181.295 53.0066 180.571 53.1292 179.722 53.1292C178.871 53.1292 178.128 53.0016 177.495 52.7464C176.862 52.4912 176.37 52.1034 176.018 51.5831C175.667 51.0627 175.487 50.4048 175.477 49.6094H177.833C177.853 49.9375 177.941 50.2109 178.097 50.4297C178.252 50.6484 178.466 50.8141 178.738 50.9268C179.013 51.0395 179.331 51.0959 179.692 51.0959C180.024 51.0959 180.306 51.0511 180.538 50.9616C180.773 50.8721 180.954 50.7478 181.08 50.5888C181.205 50.4297 181.27 50.2474 181.273 50.0419C181.27 49.8496 181.21 49.6856 181.094 49.5497C180.978 49.4105 180.799 49.2912 180.558 49.1917C180.319 49.089 180.014 48.9945 179.643 48.9084L178.579 48.6598C177.697 48.4576 177.003 48.1311 176.496 47.6804C175.989 47.2263 175.737 46.6131 175.74 45.8409C175.737 45.2112 175.906 44.6593 176.247 44.1853C176.589 43.7114 177.061 43.3418 177.664 43.0767C178.267 42.8115 178.955 42.679 179.727 42.679C180.516 42.679 181.201 42.8132 181.781 43.0817C182.364 43.3468 182.816 43.7197 183.138 44.2003C183.459 44.6808 183.623 45.2377 183.63 45.8707H181.273Z" fill="#F7F9FF"/>
<path d="M162 49.5729V44.9611C162 44.0997 161.339 43.1227 160.518 42.797L154.579 40.4018C153.246 39.8661 151.743 39.8661 150.41 40.4018L144.471 42.797C143.661 43.1227 143 44.0997 143 44.9611V49.5729C143 54.71 146.785 59.5214 151.956 60.9291C152.308 61.0236 152.692 61.0236 153.044 60.9291C158.215 59.5214 162 54.71 162 49.5729ZM153.3 51.4113V54.1742C153.3 54.6049 152.937 54.9621 152.5 54.9621C152.063 54.9621 151.7 54.6049 151.7 54.1742V51.4113C150.623 51.0752 149.834 50.0877 149.834 48.9216C149.834 47.4719 151.029 46.2953 152.5 46.2953C153.971 46.2953 155.166 47.4719 155.166 48.9216C155.166 50.0982 154.377 51.0752 153.3 51.4113Z" fill="url(#paint3_linear_10322_3910)"/>
<defs>
<linearGradient id="paint0_linear_10322_3910" x1="158" y1="54" x2="260" y2="54" gradientUnits="userSpaceOnUse">
<stop stop-color="#014F54"/>
<stop offset="1" stop-color="#08878F"/>
</linearGradient>
<linearGradient id="paint1_linear_10322_3910" x1="152.667" y1="29" x2="152.667" y2="75.6667" gradientUnits="userSpaceOnUse">
<stop stop-color="#08878F"/>
<stop offset="0.78007" stop-color="#014F54"/>
</linearGradient>
<linearGradient id="paint2_linear_10322_3910" x1="153" y1="27" x2="152.667" y2="75.6667" gradientUnits="userSpaceOnUse">
<stop offset="0.668817" stop-color="#014F54"/>
<stop offset="1" stop-color="#08878F"/>
</linearGradient>
<linearGradient id="paint3_linear_10322_3910" x1="158.897" y1="39.992" x2="146.36" y2="58.5497" gradientUnits="userSpaceOnUse">
<stop stop-color="#FBED1F"/>
<stop offset="0.318208" stop-color="#DFE056"/>
<stop offset="0.503857" stop-color="#CFD876"/>
<stop offset="1" stop-color="#FBED1F"/>
</linearGradient>
</defs>
</svg>
